# xmcd
#
# Track frame offsets:
#	150
#	17264
#	36258
#	52931
#	73483
#	101102
#	113978
#	140076
#	157484
#	180709
#	203612
#
# Disc length: 3039 seconds
# Revision: 0
# Processed by: cddbd v1.5.2PL0 Copyright (c) Steve Scherf et al.
# Submitted via: dBpowerAMP V12.0
#
DISCID=a20bdd0b
DTITLE=Lin หลิน วลัญจ์รัช - ลูกทุ่งออดิโอไฟล์
DYEAR=2018
DGENRE=Thai
TTITLE0=สาวทรานซิสเต้อร์
TTITLE1=คนสุดท้าย
TTITLE2=ขวัญ-เรือน
TTITLE3=สยามเมืองยิ้ม
TTITLE4=นักร้องบ้านนอก
TTITLE5=สาวนาสั่งแฟน
TTITLE6=บุษบาเสี่ยงเทียน
TTITLE7=เคียวเกี่ยวใจ
TTITLE8=หม้ายขันหมาก
TTITLE9=กรรมกรสอนลูก
TTITLE10=บุษบาเสี่ยงเทียน
EXTD=
EXTT0=
EXTT1=
EXTT2=
EXTT3=
EXTT4=
EXTT5=
EXTT6=
EXTT7=
EXTT8=
EXTT9=
EXTT10=
PLAYORDER=
